<svg width="3944" height="1085" xmlns="http://www.w3.org/2000/svg" xmlns:xlink="http://www.w3.org/1999/xlink" xml:space="preserve" overflow="hidden"><defs><clipPath id="clip0"><rect x="98" y="783" width="3944" height="1085"/></clipPath></defs><g clip-path="url(#clip0)" transform="translate(-98 -783)"><path d="M121 1325.5C121 1038.59 353.588 806 640.499 806L3499.5 806C3786.41 806 4019 1038.59 4019 1325.5L4019 1325.5C4019 1612.41 3786.41 1845 3499.5 1845L640.499 1845C353.588 1845 121 1612.41 121 1325.5Z" stroke="#C00000" stroke-width="45.8333" stroke-linecap="round" stroke-linejoin="round" stroke-miterlimit="10" fill="none" fill-rule="evenodd"/><path d="M251 1325.5C251 1110.39 425.386 936 640.501 936L3499.5 936C3714.62 936 3889 1110.39 3889 1325.5L3889 1325.5C3889 1540.62 3714.61 1715 3499.5 1715L640.501 1715C425.386 1715 251 1540.61 251 1325.5Z" stroke="#C00000" stroke-width="45.8333" stroke-linecap="round" stroke-linejoin="round" stroke-miterlimit="10" fill="none" fill-rule="evenodd"/><path d="M381 1326C381 1182.41 497.406 1066 641 1066L3499 1066C3642.59 1066 3759 1182.41 3759 1326L3759 1326C3759 1469.59 3642.59 1586 3499 1586L641 1586C497.406 1586 381 1469.59 381 1326Z" stroke="#C00000" stroke-width="45.8333" stroke-linecap="round" stroke-linejoin="round" stroke-miterlimit="10" fill="none" fill-rule="evenodd"/><path d="M511 1326C511 1254.2 569.202 1196 640.999 1196L3499 1196C3570.8 1196 3629 1254.2 3629 1326L3629 1326C3629 1397.8 3570.8 1456 3499 1456L640.999 1456C569.202 1456 511 1397.8 511 1326Z" stroke="#C00000" stroke-width="45.8333" stroke-linecap="round" stroke-linejoin="round" stroke-miterlimit="10" fill="none" fill-rule="evenodd"/><text fill="#C00000" font-family="Aharoni,Aharoni_MSFontService,sans-serif" font-style="oblique" font-weight="700" font-size="128" transform="matrix(1 0 0 1 620.026 1364)">Swedish Academy High<tspan font-size="128" x="1470.1" y="0">Altitude</tspan><tspan font-size="128" x="1979.43" y="0">Training</tspan><tspan font-size="128" x="2507.08" y="0">Center</tspan></text></g></svg>